# xmcd
#
# Track frame offsets:
#	182
#	14112
#	31885
#
# Disc length: 613 seconds
#
# Revision: 0
# Processed by: cddbd v1.4PL0 Copyright (c) Steve Scherf et al.
# Submitted via: EasyCDDAExtractor 4.6.9.1
#
DISCID=1e026303
DTITLE=Boyzone - So Good
DYEAR=1900
DGENRE=
TTITLE0=So Good(Radio Edit)
TTITLE1=Here To Eternity(So Good CD Single Version)
TTITLE2=So Good(The 'Deadly' Mix)
EXTD=
EXTT0=
EXTT1=
EXTT2=
PLAYORDER=
